# xmcd
#
# Track frame offsets: 
#        150
#        15277
#        27129
#        40440
#        54168
#        66946
#        80816
#        93200
#        107452
#        120012
#        133181
#        147346
#        160576
#        174974
#        188211
#        201780
#        215972
#        229211
#        241711
#        255426
#        269793
#        282333
#        295778
#        308762
#        323351
#
# Disc length: 4521 seconds
#
# Revision: 0
# Processed by: cddbd v1.5.2PL0 Copyright (c) Steve Scherf et al.
# Submitted via: ExactAudioCopy v0.99pb5
#
DISCID=5611a719
DTITLE=Barbara Demick - Nothing to Envy [7 of 10]
DYEAR=2010
DGENRE=Audiobook
TTITLE0=07-01
TTITLE1=07-02
TTITLE2=07-03
TTITLE3=07-04
TTITLE4=07-05
TTITLE5=07-06
TTITLE6=07-07
TTITLE7=07-08
TTITLE8=07-09
TTITLE9=07-10
TTITLE10=07-11
TTITLE11=07-12
TTITLE12=07-13
TTITLE13=07-14
TTITLE14=07-15
TTITLE15=07-16
TTITLE16=07-17
TTITLE17=07-18
TTITLE18=07-19
TTITLE19=07-20
TTITLE20=07-21
TTITLE21=07-22
TTITLE22=07-23
TTITLE23=07-24
TTITLE24=07-25
EXTD=
EXTT0=
EXTT1=
EXTT2=
EXTT3=
EXTT4=
EXTT5=
EXTT6=
EXTT7=
EXTT8=
EXTT9=
EXTT10=
EXTT11=
EXTT12=
EXTT13=
EXTT14=
EXTT15=
EXTT16=
EXTT17=
EXTT18=
EXTT19=
EXTT20=
EXTT21=
EXTT22=
EXTT23=
EXTT24=
PLAYORDER=
